<!--?xml version="1.0" standalone="no"?-->
              <svg id="sw-js-blob-svg" viewBox="0 0 100 100" xmlns="http://www.w3.org/2000/svg" version="1.1">
                    <defs> 
                        <linearGradient id="sw-gradient" x1="0" x2="1" y1="1" y2="0">
                            <stop id="stop1" stop-color="rgba(41, 98, 255, 1)" offset="0%"></stop>
                            <stop id="stop2" stop-color="rgba(79, 195, 247, 1)" offset="100%"></stop>
                        </linearGradient>
                    </defs>
                <path fill="url(#sw-gradient)" d="M23.3,-31.5C30.9,-26.6,38.3,-20.7,40.7,-13.3C43,-5.8,40.3,3.2,35.4,9.4C30.5,15.6,23.4,19.1,17.2,22.8C10.9,26.6,5.4,30.7,-0.5,31.4C-6.4,32,-12.8,29.2,-20,25.8C-27.2,22.3,-35.2,18.2,-37.3,12C-39.3,5.9,-35.5,-2.2,-31.6,-9.1C-27.7,-15.9,-23.7,-21.5,-18.4,-27.3C-13.2,-33,-6.6,-38.8,0.6,-39.7C7.8,-40.6,15.7,-36.5,23.3,-31.5Z" width="100%" height="100%" transform="translate(50 50)" stroke-width="0" style="transition: 0.3s;" stroke="url(#sw-gradient)"></path>
              </svg>