<!--?xml version="1.0" standalone="no"?-->
              <svg id="sw-js-blob-svg" viewBox="0 0 100 100" xmlns="http://www.w3.org/2000/svg" version="1.1">
                    <defs> 
                        <linearGradient id="sw-gradient" x1="0" x2="1" y1="1" y2="0">
                            <stop id="stop1" stop-color="rgba(31, 32, 65, 1)" offset="0%"></stop>
                            <stop id="stop2" stop-color="rgba(75, 63, 114, 1)" offset="100%"></stop>
                        </linearGradient>
                    </defs>
                <path fill="url(#sw-gradient)" d="M22.8,-32.6C28.7,-27.1,32.2,-19.3,33.9,-11.6C35.6,-3.8,35.6,3.9,34.5,12.4C33.4,20.9,31.1,30.3,25.1,36.5C19.2,42.8,9.6,45.9,1.3,44.1C-7,42.4,-14.1,35.7,-21.6,30C-29,24.3,-37,19.4,-39,12.8C-41,6.1,-37.2,-2.4,-33.4,-9.8C-29.5,-17.1,-25.5,-23.4,-19.9,-29C-14.4,-34.6,-7.2,-39.6,0.6,-40.4C8.4,-41.3,16.9,-38.1,22.8,-32.6Z" width="100%" height="100%" transform="translate(50 50)" stroke-width="0" style="transition: 0.3s;" stroke="url(#sw-gradient)"></path>
              </svg>